<svg width="1592" height="332" viewBox="0 0 1592 332" fill="none" xmlns="http://www.w3.org/2000/svg">
<path d="M1050.62 83.542H1189.69V99.31H1167.57V211H1148.29V155.374H1096.61V211H1077.34V155.812C1073.54 155.52 1070.18 154.352 1067.26 152.308C1064.49 150.118 1063.1 146.76 1063.1 142.234C1063.1 139.46 1063.69 136.832 1064.86 134.35C1066.17 131.868 1067.78 129.751 1069.67 127.999C1071.72 126.247 1074.05 124.86 1076.68 123.838C1079.31 122.816 1082.01 122.305 1084.78 122.305C1087.7 122.305 1090.11 122.597 1092.01 123.181C1093.91 123.619 1095.44 124.276 1096.61 125.152V139.168H1148.29V99.31H1050.62V83.542ZM1180.87 83.542H1335.7V99.31H1300.22C1299.64 104.274 1298.61 109.311 1297.15 114.421C1295.84 119.385 1294.38 123.911 1292.77 127.999C1301.83 132.233 1308.98 137.854 1314.24 144.862C1319.64 151.87 1322.34 160.484 1322.34 170.704C1322.34 177.566 1321.03 183.552 1318.4 188.662C1315.92 193.626 1312.63 197.86 1308.54 201.364C1304.6 204.722 1300.07 207.423 1294.96 209.467C1289.85 211.365 1284.74 212.606 1279.63 213.19L1275.04 198.298C1283.5 196.546 1290.29 193.261 1295.4 188.443C1300.51 183.625 1303.07 177.201 1303.07 169.171C1303.07 163.477 1301.32 158.44 1297.81 154.06C1294.45 149.68 1290.07 146.03 1284.67 143.11C1281.17 148.658 1277.01 153.914 1272.19 158.878C1267.37 163.696 1262.7 167.492 1258.17 170.266C1252.62 167.2 1247.51 163.331 1242.84 158.659C1238.17 153.987 1234.08 148.95 1230.58 143.548C1225.47 146.322 1221.31 149.899 1218.1 154.279C1215.03 158.513 1213.5 163.55 1213.5 169.39C1213.5 177.274 1216.05 183.625 1221.16 188.443C1226.27 193.261 1233.13 196.473 1241.75 198.079L1237.37 213.19C1231.67 212.752 1226.2 211.511 1220.94 209.467C1215.83 207.423 1211.23 204.649 1207.15 201.145C1203.2 197.641 1199.99 193.334 1197.51 188.224C1195.17 183.114 1194.01 177.201 1194.01 170.485C1194.01 160.849 1196.49 152.6 1201.45 145.738C1206.42 138.876 1213.28 133.182 1222.04 128.656C1220.43 124.568 1218.97 120.042 1217.66 115.078C1216.49 109.968 1215.54 104.712 1214.81 99.31H1180.87V83.542ZM1258.17 150.556C1264.3 144.424 1269.27 136.978 1273.06 128.218C1276.86 119.458 1279.27 109.822 1280.29 99.31H1234.3C1237.08 121.21 1245.03 138.292 1258.17 150.556ZM1262 56.386C1262 52.59 1262.73 49.232 1264.19 46.312C1265.65 43.246 1267.69 40.691 1270.32 38.647C1272.8 36.457 1275.72 34.778 1279.08 33.61C1282.29 32.442 1285.8 31.858 1289.59 31.858C1293.39 31.858 1296.96 32.442 1300.32 33.61C1303.68 34.778 1306.67 36.457 1309.3 38.647C1311.78 40.837 1313.75 43.465 1315.21 46.531C1316.67 49.451 1317.4 52.736 1317.4 56.386C1317.4 60.474 1316.6 63.905 1315 66.679C1313.24 69.453 1311.56 71.424 1309.96 72.592L1298.13 67.336C1298.86 66.168 1299.52 64.781 1300.1 63.175C1300.69 61.569 1300.98 59.817 1300.98 57.919C1300.98 53.685 1299.81 50.546 1297.48 48.502C1295.14 46.458 1292.51 45.436 1289.59 45.436C1286.67 45.436 1284.12 46.531 1281.93 48.721C1279.59 50.765 1278.42 53.831 1278.42 57.919C1278.42 59.671 1278.71 61.423 1279.3 63.175C1279.88 64.781 1280.54 66.168 1281.27 67.336L1269.44 72.592C1267.98 71.57 1266.38 69.672 1264.63 66.898C1262.87 64.124 1262 60.62 1262 56.386ZM1326.46 83.542H1461.8V99.31H1439.9V211H1420.41V182.749C1417.05 184.793 1413.04 186.399 1408.36 187.567C1403.69 188.735 1398.29 189.319 1392.16 189.319C1380.19 189.319 1369.89 186.618 1361.28 181.216C1352.81 175.814 1346.31 168.952 1341.79 160.63C1345.44 154.06 1348.43 147.49 1350.77 140.92C1353.25 134.35 1354.49 127.196 1354.49 119.458C1354.49 115.662 1354.2 112.085 1353.61 108.727C1353.03 105.223 1352.23 102.084 1351.2 99.31H1326.46V83.542ZM1392.81 173.113C1398.95 173.113 1404.2 172.31 1408.58 170.704C1413.11 168.952 1417.05 166.616 1420.41 163.696V99.31H1370.7C1371.72 102.668 1372.52 106.099 1373.1 109.603C1373.69 113.107 1373.98 116.465 1373.98 119.677C1373.98 127.707 1373.03 134.861 1371.13 141.139C1369.24 147.417 1366.61 153.622 1363.25 159.754C1366.17 163.988 1370.18 167.273 1375.29 169.609C1380.4 171.945 1386.24 173.113 1392.81 173.113ZM1453.12 83.542H1580.8V99.31H1560.21V176.398C1560.21 188.662 1556.56 197.787 1549.26 203.773C1541.96 209.759 1531.96 212.752 1519.26 212.752C1512.39 212.752 1505.75 211.511 1499.33 209.029C1493.05 206.547 1487.36 203.116 1482.25 198.736C1477.28 194.356 1473.27 189.1 1470.2 182.968C1467.28 176.69 1465.82 169.828 1465.82 162.382C1465.82 156.98 1466.62 152.235 1468.23 148.147C1469.98 144.059 1472.32 140.628 1475.24 137.854C1478.3 135.08 1481.81 133.036 1485.75 131.722C1489.84 130.262 1494.22 129.532 1498.89 129.532H1540.72V99.31H1453.12V83.542ZM1519.69 196.546C1526.12 196.546 1531.23 195.013 1535.02 191.947C1538.82 188.881 1540.72 183.625 1540.72 176.179V145.738H1502.39C1496.55 145.738 1492.17 147.417 1489.25 150.775C1486.48 154.133 1485.09 158.44 1485.09 163.696C1485.09 168.514 1486.11 172.967 1488.16 177.055C1490.35 181.143 1493.12 184.647 1496.48 187.567C1499.84 190.341 1503.56 192.531 1507.65 194.137C1511.74 195.743 1515.75 196.546 1519.69 196.546Z" fill="#EA4335"/>
<path d="M130.799 209.225L102.606 224.523L93.5368 204.636C84.1394 216.218 70.2619 224.523 52.232 224.523C17.9206 224.523 0 196.112 0 152.185C0 104.433 21.1988 78.7543 54.9638 78.7543C70.8082 78.7543 83.156 84.655 91.1328 95.6915V25.3203H120.09V187.808L130.799 209.225ZM91.1328 189.884V115.033C83.5931 108.913 74.1957 105.089 64.3612 105.089C42.9439 105.089 30.2683 121.48 30.2683 152.294C30.2683 181.798 42.0697 198.189 63.8148 198.189C73.4308 198.189 83.3745 195.02 91.1328 189.884Z" fill="black"/>
<path d="M274.491 154.807H179.534C181.501 179.175 200.514 195.566 230.564 195.566C245.862 195.566 262.471 192.397 273.726 186.496L264.657 216.218C255.259 221.354 239.415 224.523 221.276 224.523C178.113 224.523 149.703 195.347 149.703 150.764C149.703 105.963 176.802 78.6445 219.965 78.6445C255.587 78.6445 278.097 98.9691 278.097 131.969C277.988 139.509 276.677 148.36 274.491 154.807ZM181.282 134.701H249.686C248.375 113.83 238.431 103.886 219.965 103.886C199.749 103.886 185.762 115.36 181.282 134.701Z" fill="black"/>
<path d="M345.081 221.026L290.336 82.1416H322.243L357.866 179.175L361.909 191.195H363.002L367.045 179.175L402.449 82.1416H433.81L379.393 221.026H345.081Z" fill="black"/>
<path d="M528.658 82.4692H591.38L587.337 104.761H524.615L502.651 229.659C496.532 264.516 473.148 277.629 440.476 277.629C425.505 277.629 418.512 275.443 410.972 273.914L410.426 251.404C417.966 252.715 426.817 253.589 439.164 253.589C458.724 253.589 471.618 245.831 474.568 229.44L496.532 104.761H452.823L456.866 82.4692H500.575L502.761 69.5751C508.88 34.9359 531.936 21.8232 564.39 21.8232C579.688 21.8232 587.446 24.0087 594.112 25.5385L594.658 48.5949C587.119 46.7373 578.268 45.8631 565.92 45.8631C546.579 45.8631 533.794 53.6214 530.843 70.0122L528.658 82.4692Z" fill="black"/>
<path d="M720.976 154.807H626.019C627.877 179.175 646.89 195.566 676.94 195.566C692.238 195.566 708.847 192.397 720.102 186.496L711.033 216.218C701.635 221.354 685.791 224.523 667.652 224.523C624.489 224.523 596.079 195.347 596.079 150.764C596.079 105.963 623.178 78.6445 666.34 78.6445C701.963 78.6445 724.473 98.9691 724.473 131.969C724.364 139.509 723.053 148.36 720.976 154.807ZM627.658 134.701H696.062C694.751 113.83 684.807 103.886 666.34 103.886C646.125 103.886 632.138 115.36 627.658 134.701Z" fill="black"/>
<path d="M752.01 212.721L750.152 181.579C762.5 190.211 785.01 197.642 808.613 197.642C826.533 197.642 839.428 191.96 839.428 179.393C839.428 153.168 753.103 177.536 753.103 123.883C753.103 98.9693 771.897 77.7705 816.699 77.7705C844.017 77.7705 864.997 84.4361 864.997 101.045C864.997 106.181 862.812 110.443 860.736 114.486C848.934 108.804 830.467 104.87 814.841 104.87C793.424 104.87 782.169 112.956 782.169 121.807C782.169 145.082 869.587 124.757 869.587 176.989C869.587 206.165 843.798 224.413 805.553 224.413C779.328 224.523 759.768 216.218 752.01 212.721Z" fill="black"/>
<path d="M1018.74 191.523L1012.84 218.622C1005.85 221.572 991.971 224.523 979.077 224.523C944.437 224.523 929.795 206.602 929.795 181.142V106.618H890.348V82.2507H929.795V44.1147H958.752V82.1414H1014.81V106.509H958.752V172.181C958.752 190.102 968.149 198.188 984.54 198.188C993.828 198.188 1010.98 196.112 1018.74 191.523Z" fill="black"/>
</svg>
