<svg width="5264" height="1208" viewBox="0 0 5264 1208" fill="none" xmlns="http://www.w3.org/2000/svg">
<path d="M364.951 266.761L70.5676 487.102C8.88527 533.27 -5.18698 622.781 39.1361 687.032L39.2978 687.265C83.6209 751.516 169.555 766.172 231.237 720.006L525.618 499.664C587.302 453.496 601.376 363.985 557.051 299.735L556.89 299.501C512.568 235.251 426.632 220.593 364.951 266.761Z" fill="#EA4335"/>
<path fill-rule="evenodd" clip-rule="evenodd" d="M78.3202 498.343C22.5952 540.052 9.8821 620.917 49.9245 678.962L50.0861 679.198C90.1285 737.243 167.763 750.482 223.488 708.773L517.87 488.434C573.596 446.725 586.309 365.859 546.267 307.814L546.106 307.58C506.064 249.536 428.429 236.293 372.704 278.003L78.3202 498.343ZM28.3514 695.111C-20.2524 624.654 -4.82106 526.499 62.8186 475.872L357.2 255.532C424.841 204.905 519.073 220.978 567.678 291.433L567.839 291.667C616.443 362.122 601.012 460.278 533.374 510.905L238.99 731.247C171.351 781.875 77.1169 765.797 28.5131 695.344L28.3514 695.111Z" fill="black"/>
<path d="M39.2978 519.875L39.1361 520.109C-5.18698 584.358 8.88527 673.872 70.5676 720.038L364.951 940.379C426.632 986.545 512.568 971.889 556.89 907.638L557.051 907.405C601.376 843.154 587.302 753.644 525.618 707.474L231.237 487.135C169.555 440.967 83.6209 455.625 39.2978 519.875Z" fill="#4285F4"/>
<path fill-rule="evenodd" clip-rule="evenodd" d="M49.9352 528.177C9.89287 586.219 22.606 667.089 78.331 708.798L372.715 929.138C428.437 970.847 506.075 957.605 546.117 899.56L546.278 899.327C586.32 841.282 573.607 760.416 517.881 718.707L223.499 498.365C167.774 456.656 90.1393 469.898 50.0969 527.943L49.9352 528.177ZM62.829 731.268C-4.8103 680.64 -20.2417 582.486 28.3622 512.03L28.5238 511.796C77.1277 441.34 171.361 425.267 239.001 475.894L533.385 696.233C601.024 746.861 616.455 845.019 567.85 915.473L567.689 915.705C519.084 986.163 424.853 1002.24 357.211 951.608L62.829 731.268Z" fill="black"/>
<path d="M1075.63 486.95L781.249 707.289C719.565 753.459 705.495 842.969 749.817 907.22L749.978 907.453C794.303 971.704 880.236 986.36 941.92 940.194L1236.3 719.853C1297.99 673.683 1312.06 584.173 1267.73 519.923L1267.57 519.689C1223.25 455.44 1137.31 440.782 1075.63 486.95Z" fill="#F9AB00"/>
<path fill-rule="evenodd" clip-rule="evenodd" d="M789.012 718.518C733.287 760.227 720.573 841.096 760.615 899.138L760.78 899.374C800.822 957.419 878.457 970.662 934.182 928.953L1228.56 708.612C1284.29 666.903 1297 586.034 1256.96 527.991L1256.8 527.756C1216.75 469.712 1139.12 456.47 1083.39 498.179L789.012 718.518ZM739.043 915.287C690.439 844.83 705.87 746.675 773.512 696.048L1067.89 475.708C1135.53 425.081 1229.77 441.154 1278.37 511.61L1278.53 511.843C1327.14 582.3 1311.71 680.454 1244.06 731.082L949.683 951.423C882.044 1002.05 787.809 985.977 739.204 915.52L739.043 915.287Z" fill="black"/>
<path d="M749.968 299.58L749.803 299.814C705.481 364.064 719.555 453.575 781.236 499.743L1075.62 720.085C1137.3 766.251 1223.23 751.595 1267.56 687.344L1267.72 687.111C1312.04 622.86 1297.97 533.349 1236.29 487.181L941.906 266.841C880.222 220.672 794.289 235.33 749.968 299.58Z" fill="#34A853"/>
<path fill-rule="evenodd" clip-rule="evenodd" d="M760.586 307.895C720.544 365.939 733.254 446.806 788.979 488.515L1083.36 708.857C1139.09 750.566 1216.72 737.323 1256.77 679.278L1256.93 679.045C1296.97 621 1284.26 540.133 1228.53 498.424L934.149 278.083C878.424 236.374 800.789 249.616 760.747 307.661L760.586 307.895ZM773.479 510.986C705.841 460.359 690.406 362.203 739.011 291.748L739.172 291.514C787.776 221.059 882.012 204.985 949.65 255.612L1244.03 475.953C1311.67 526.579 1327.1 624.738 1278.5 695.191L1278.34 695.424C1229.73 765.881 1135.5 781.954 1067.86 731.327L773.479 510.986Z" fill="black"/>
<path d="M1605.9 237.8H1835.8C1906.73 237.8 1968.48 252.05 2021.05 280.55C2073.62 309.05 2114.15 348.95 2142.65 400.25C2171.15 451.55 2185.4 510.767 2185.4 577.9C2185.4 645.033 2171.15 704.25 2142.65 755.55C2114.15 806.85 2073.62 846.75 2021.05 875.25C1968.48 903.75 1906.73 918 1835.8 918H1605.9V237.8ZM1830.1 796.4C1903.57 796.4 1959.62 777.083 1998.25 738.45C2036.88 699.183 2056.2 645.667 2056.2 577.9C2056.2 510.133 2036.88 456.933 1998.25 418.3C1959.62 379.033 1903.57 359.4 1830.1 359.4H1734.15V796.4H1830.1ZM2503.3 933.2C2455.17 933.2 2411.78 922.117 2373.15 899.95C2334.52 877.783 2304.12 847.383 2281.95 808.75C2260.42 769.483 2249.65 725.467 2249.65 676.7C2249.65 630.467 2260.42 587.717 2281.95 548.45C2303.48 508.55 2333.25 476.883 2371.25 453.45C2409.25 430.017 2451.68 418.3 2498.55 418.3C2548.58 418.3 2591.65 429.067 2627.75 450.6C2663.85 472.133 2691.08 501.583 2709.45 538.95C2728.45 576.317 2737.95 617.8 2737.95 663.4C2737.95 677.967 2737 691.9 2735.1 705.2H2371.25C2377.58 743.833 2392.78 773.283 2416.85 793.55C2441.55 813.183 2471 823 2505.2 823C2533.7 823 2558.08 816.983 2578.35 804.95C2599.25 792.283 2615.72 775.5 2627.75 754.6L2728.45 804C2679.05 890.133 2604 933.2 2503.3 933.2ZM2618.25 616.85C2616.98 601.65 2611.28 586.767 2601.15 572.2C2591.65 557 2578.03 544.65 2560.3 535.15C2543.2 525.017 2522.93 519.95 2499.5 519.95C2469.73 519.95 2444.08 528.817 2422.55 546.55C2401.65 563.65 2386.45 587.083 2376.95 616.85H2618.25ZM2770.39 433.5H2911.94L3034.49 748.9H3042.09L3166.54 433.5H3306.19L3099.09 918H2975.59L2770.39 433.5ZM3390.86 237.8H3822.16V359.4H3519.11V524.7H3791.76V646.3H3519.11V918H3390.86V237.8ZM4116.63 933.2C4068.5 933.2 4025.11 922.117 3986.48 899.95C3947.85 877.783 3917.45 847.383 3895.28 808.75C3873.75 769.483 3862.98 725.467 3862.98 676.7C3862.98 630.467 3873.75 587.717 3895.28 548.45C3916.81 508.55 3946.58 476.883 3984.58 453.45C4022.58 430.017 4065.01 418.3 4111.88 418.3C4161.91 418.3 4204.98 429.067 4241.08 450.6C4277.18 472.133 4304.41 501.583 4322.78 538.95C4341.78 576.317 4351.28 617.8 4351.28 663.4C4351.28 677.967 4350.33 691.9 4348.43 705.2H3984.58C3990.91 743.833 4006.11 773.283 4030.18 793.55C4054.88 813.183 4084.33 823 4118.53 823C4147.03 823 4171.41 816.983 4191.68 804.95C4212.58 792.283 4229.05 775.5 4241.08 754.6L4341.78 804C4292.38 890.133 4217.33 933.2 4116.63 933.2ZM4231.58 616.85C4230.31 601.65 4224.61 586.767 4214.48 572.2C4204.98 557 4191.36 544.65 4173.63 535.15C4156.53 525.017 4136.26 519.95 4112.83 519.95C4083.06 519.95 4057.41 528.817 4035.88 546.55C4014.98 563.65 3999.78 587.083 3990.28 616.85H4231.58ZM4636.09 933.2C4577.19 933.2 4529.37 921.167 4492.64 897.1C4456.54 873.033 4431.2 841.683 4416.64 803.05L4527.79 754.6C4537.92 777.4 4552.17 794.817 4570.54 806.85C4589.54 818.25 4611.39 823.95 4636.09 823.95C4658.89 823.95 4677.89 820.467 4693.09 813.5C4708.29 805.9 4715.89 793.867 4715.89 777.4C4715.89 761.567 4708.92 749.85 4694.99 742.25C4681.05 734.017 4660.15 726.733 4632.29 720.4L4575.29 708.05C4536.02 698.55 4503.4 681.45 4477.44 656.75C4451.47 631.417 4438.49 600.067 4438.49 562.7C4438.49 534.833 4446.72 509.817 4463.19 487.65C4480.29 465.483 4503.09 448.383 4531.59 436.35C4560.72 424.317 4592.7 418.3 4627.54 418.3C4727.6 418.3 4794.42 453.45 4827.99 523.75L4721.59 570.3C4702.59 536.1 4672.19 519 4630.39 519C4608.85 519 4591.75 523.117 4579.09 531.35C4566.42 538.95 4560.09 548.767 4560.09 560.8C4560.09 583.6 4581.62 600.7 4624.69 612.1L4695.94 629.2C4744.07 641.233 4780.17 659.6 4804.24 684.3C4828.94 709 4841.29 739.4 4841.29 775.5C4841.29 806.533 4832.1 834.083 4813.74 858.15C4796 881.583 4771.3 899.95 4739.64 913.25C4708.6 926.55 4674.09 933.2 4636.09 933.2ZM5137.69 925.6C5113.62 925.6 5091.45 922.117 5071.19 915.15C5050.92 907.55 5034.45 897.417 5021.79 884.75C4992.02 856.25 4977.14 815.717 4977.14 763.15V539.9H4892.59V433.5H4977.14V296.7H5101.59V433.5H5220.34V539.9H5101.59V740.35C5101.59 765.05 5106.97 782.783 5117.74 793.55C5126.6 803.683 5141.8 808.75 5163.34 808.75C5175.37 808.75 5185.19 807.167 5192.79 804C5201.02 800.833 5211.47 795.45 5224.14 787.85V909.45C5196.9 920.217 5168.09 925.6 5137.69 925.6Z" fill="#1E1E1E"/>
</svg>
