<svg width="1390" height="430" viewBox="0 0 1390 430" fill="none" xmlns="http://www.w3.org/2000/svg">
<path d="M1121.88 285.625H268.125C231.536 285.625 201.875 315.286 201.875 351.875C201.875 388.464 231.536 418.125 268.125 418.125H1121.88C1158.46 418.125 1188.13 388.464 1188.13 351.875C1188.13 315.286 1158.46 285.625 1121.88 285.625Z" fill="white" stroke="#1E1E1E" stroke-width="5"/>
<path d="M457.205 379.247V334.872H463.467V379.247H457.205ZM433.239 379.247V357.201H439.501V379.247H433.239ZM431.888 359.977C430.656 359.977 429.613 359.597 428.756 358.84C427.904 358.077 427.477 357.152 427.477 356.064C427.477 355.162 427.786 354.179 428.401 353.112C429.021 352.046 429.804 351.04 430.75 350.094C431.7 349.145 432.696 348.372 433.74 347.78C434.784 347.186 435.756 346.89 436.657 346.89C437.509 346.89 438.196 347.175 438.718 347.746C439.24 348.312 439.501 349.069 439.501 350.015V359.977H431.888ZM436.442 359.977V354.425H460.832V359.977H436.442ZM422.5 337.43V332.311H469.865V337.43H422.5ZM495.188 362.747C491.726 361.704 488.738 360.034 486.223 357.736C483.71 355.435 481.636 352.447 480 348.776C478.366 345.101 477.123 340.679 476.266 335.509H483.024C483.639 339.399 484.469 342.777 485.513 345.645C486.556 348.514 487.824 350.874 489.314 352.724C490.808 354.571 492.528 355.874 494.471 356.632C496.416 355.874 498.123 354.594 499.591 352.791C501.063 350.99 502.331 348.644 503.398 345.752C504.464 342.857 505.305 339.444 505.92 335.509H512.678C511.731 340.866 510.488 345.394 508.944 349.091C507.405 352.79 505.509 355.742 503.256 357.95C501.004 360.154 498.314 361.752 495.188 362.747ZM484.656 380.385C480.58 378.582 477.404 376.261 475.129 373.419C472.854 370.574 471.716 367.349 471.716 363.745C471.716 360.282 472.711 357.165 474.7 354.391C476.694 351.616 479.444 349.449 482.95 347.886L485.586 353.501C483.213 354.639 481.326 356.121 479.926 357.95C478.53 359.774 477.831 361.8 477.831 364.026C477.831 366.35 478.625 368.461 480.214 370.361C481.801 372.257 484.113 373.915 487.145 375.334L484.656 380.385ZM505.07 380.385L502.153 374.551C504.999 373.225 507.18 371.662 508.696 369.86C510.213 368.057 510.971 365.995 510.971 363.671C510.971 361.254 510.343 359.204 509.085 357.521C507.831 355.84 505.946 354.429 503.431 353.287L505.78 348.241C509.335 349.807 512.131 351.941 514.17 354.644C516.209 357.344 517.228 360.449 517.228 363.959C517.228 367.514 516.184 370.702 514.096 373.526C512.014 376.345 509.004 378.631 505.07 380.385ZM467.02 337.43V332.311H521.924V337.43H467.02ZM499.381 329.466C498.529 327.852 498.104 326.004 498.104 323.92C498.104 321.025 499.086 318.607 501.054 316.667C503.021 314.722 505.783 313.75 509.338 313.75C512.893 313.75 515.654 314.722 517.621 316.667C519.589 318.607 520.573 321.025 520.573 323.92C520.573 324.915 520.454 325.899 520.218 326.871C519.981 327.844 519.673 328.709 519.294 329.466L514.243 327.474C514.67 326.527 514.885 325.555 514.885 324.556C514.885 323.134 514.41 321.925 513.46 320.93C512.514 319.935 511.14 319.437 509.338 319.437C507.585 319.437 506.221 319.935 505.249 320.93C504.278 321.925 503.791 323.134 503.791 324.556C503.791 325.555 504.005 326.527 504.433 327.474L499.381 329.466ZM554.07 379.247V372.209L554.284 367.23H553.996C552.529 368.319 550.87 369.149 549.019 369.719C547.171 370.286 545.133 370.57 542.904 370.57C538.068 370.57 534.109 369.277 531.026 366.695C527.945 364.112 525.716 360.662 524.343 356.345C526.76 354.119 528.503 352.046 529.569 350.127C530.635 348.206 531.168 346.082 531.168 343.759C531.168 342.149 531.014 340.56 530.706 338.995C530.398 337.43 529.911 335.96 529.248 334.586H535.363C535.505 334.916 535.635 335.249 535.751 335.582C535.871 335.912 535.98 336.292 536.078 336.72L535.155 337.43H519.078V332.311H566.729V337.43H541.839L536.574 337.147L536.433 337.43C536.813 338.567 537.095 339.74 537.283 340.949C537.475 342.157 537.57 343.331 537.57 344.469C537.57 350.967 534.774 356.112 529.18 359.904L530.531 356.136C531.575 358.885 533.116 361.03 535.155 362.572C537.193 364.112 539.729 364.882 542.763 364.882C546.13 364.882 548.855 363.922 550.939 362.004C553.026 360.082 554.07 357.605 554.07 354.571V334.872H560.326V379.247H554.07ZM586.998 380.385C583.585 380.385 580.514 379.555 577.785 377.896C575.059 376.236 572.889 374.009 571.275 371.211C569.665 368.415 568.859 365.332 568.859 361.965C568.859 358.079 570.115 354.952 572.626 352.584C575.141 350.21 578.438 349.024 582.515 349.024H596.311V354.711H583.799C581.096 354.711 578.998 355.387 577.504 356.739C576.009 358.09 575.263 359.975 575.263 362.392C575.263 364.619 575.759 366.669 576.754 368.542C577.749 370.415 579.111 371.91 580.843 373.025C582.574 374.14 584.506 374.697 586.643 374.697C588.726 374.697 590.336 374.069 591.474 372.811C592.615 371.552 593.186 369.786 593.186 367.511V334.872H599.443V367.799C599.443 371.685 598.353 374.754 596.171 377.006C593.99 379.259 590.931 380.385 586.998 380.385ZM563.881 337.43V332.311H605.845V337.43H563.881ZM626.608 387.779V322.924H632.086V387.779H626.608ZM671.838 380.385C668.14 380.385 664.893 379.365 662.095 377.327C659.299 375.289 657.308 372.374 656.12 368.581L661.814 366.234C662.76 369.41 664.121 371.602 665.896 372.811C667.676 374.02 669.656 374.624 671.838 374.624C674.684 374.624 676.935 373.64 678.595 371.674C680.254 369.706 681.084 367.157 681.084 364.026V328.329H687.133V363.53C687.133 367.135 686.479 370.192 685.173 372.704C683.87 375.215 682.068 377.124 679.766 378.431C677.469 379.734 674.826 380.385 671.838 380.385ZM708.038 380.385C705.334 380.385 702.964 379.862 700.925 378.819C698.886 377.776 697.285 376.341 696.121 374.517C694.961 372.692 694.381 370.619 694.381 368.295C694.381 365.64 695.069 363.401 696.443 361.576C697.82 359.747 699.671 358.372 701.995 357.449C704.319 356.525 706.879 356.064 709.676 356.064C711.286 356.064 712.779 356.195 714.153 356.457C715.526 356.716 716.725 357.025 717.745 357.381C718.766 357.734 719.536 358.077 720.055 358.411V356.204C720.055 353.456 719.083 351.276 717.138 349.666C715.196 348.052 712.828 347.245 710.031 347.245C708.038 347.245 706.175 347.684 704.445 348.562C702.714 349.437 701.351 350.657 700.356 352.222L695.806 348.81C696.756 347.387 697.94 346.154 699.36 345.11C700.783 344.066 702.406 343.261 704.23 342.695C706.059 342.124 707.993 341.839 710.031 341.839C714.96 341.839 718.823 343.144 721.62 345.752C724.416 348.357 725.815 351.866 725.815 356.277V379.247H720.055V374.055H719.773C719.158 375.099 718.28 376.107 717.143 377.079C716.005 378.051 714.665 378.845 713.123 379.461C711.583 380.077 709.888 380.385 708.038 380.385ZM708.606 375.052C710.694 375.052 712.603 374.53 714.333 373.486C716.064 372.442 717.449 371.045 718.489 369.291C719.533 367.537 720.055 365.617 720.055 363.53C718.966 362.772 717.603 362.156 715.966 361.684C714.333 361.206 712.544 360.969 710.6 360.969C707.139 360.969 704.6 361.68 702.986 363.102C701.375 364.525 700.57 366.28 700.57 368.367C700.57 370.357 701.329 371.97 702.845 373.205C704.363 374.436 706.283 375.052 708.606 375.052ZM734.211 379.247V328.329H740.254V379.247H734.211ZM760.451 380.385C757.748 380.385 755.378 379.862 753.339 378.819C751.3 377.776 749.699 376.341 748.535 374.517C747.375 372.692 746.795 370.619 746.795 368.295C746.795 365.64 747.483 363.401 748.856 361.576C750.234 359.747 752.085 358.372 754.409 357.449C756.733 356.525 759.293 356.064 762.09 356.064C763.7 356.064 765.193 356.195 766.566 356.457C767.94 356.716 769.138 357.025 770.159 357.381C771.18 357.734 771.95 358.077 772.468 358.411V356.204C772.468 353.456 771.495 351.276 769.551 349.666C767.61 348.052 765.241 347.245 762.444 347.245C760.451 347.245 758.589 347.684 756.858 348.562C755.128 349.437 753.765 350.657 752.77 352.222L748.22 348.81C749.17 347.387 750.354 346.154 751.773 345.11C753.196 344.066 754.82 343.261 756.644 342.695C758.473 342.124 760.406 341.839 762.444 341.839C767.374 341.839 771.236 343.144 774.034 345.752C776.83 348.357 778.229 351.866 778.229 356.277V379.247H772.468V374.055H772.186C771.57 375.099 770.694 376.107 769.556 377.079C768.419 378.051 767.079 378.845 765.536 379.461C763.996 380.077 762.301 380.385 760.451 380.385ZM761.02 375.052C763.106 375.052 765.016 374.53 766.746 373.486C768.478 372.442 769.863 371.045 770.903 369.291C771.946 367.537 772.468 365.617 772.468 363.53C771.379 362.772 770.016 362.156 768.38 361.684C766.746 361.206 764.958 360.969 763.013 360.969C759.551 360.969 757.014 361.68 755.4 363.102C753.789 364.525 752.984 366.28 752.984 368.367C752.984 370.357 753.743 371.97 755.259 373.205C756.775 374.436 758.696 375.052 761.02 375.052ZM786.625 379.247V342.976H792.386V348.309H792.668C793.618 346.556 795.169 345.039 797.324 343.759C799.483 342.479 801.843 341.839 804.403 341.839C808.859 341.839 812.214 343.132 814.466 345.719C816.719 348.301 817.845 351.725 817.845 355.99V379.247H811.796V356.914C811.796 353.407 810.956 350.931 809.274 349.486C807.593 348.041 805.423 347.317 802.764 347.317C800.774 347.317 799.021 347.875 797.505 348.99C795.988 350.101 794.801 351.536 793.945 353.292C793.094 355.046 792.668 356.892 792.668 358.834V379.247H786.625ZM841.951 380.385C838.681 380.385 835.73 379.555 833.099 377.896C830.468 376.236 828.393 373.961 826.876 371.071C825.36 368.176 824.601 364.857 824.601 361.115C824.601 357.367 825.36 354.049 826.876 351.159C828.393 348.264 830.468 345.987 833.099 344.327C835.73 342.669 838.681 341.839 841.951 341.839C843.896 341.839 845.674 342.149 847.284 342.767C848.899 343.384 850.31 344.189 851.519 345.184C852.728 346.179 853.664 347.245 854.329 348.382H854.61L854.329 343.331V328.329H860.371V379.247H854.61V373.915H854.329C853.664 375.004 852.728 376.046 851.519 377.045C850.31 378.04 848.899 378.845 847.284 379.461C845.674 380.077 843.896 380.385 841.951 380.385ZM842.594 374.911C844.676 374.911 846.631 374.354 848.455 373.239C850.284 372.124 851.766 370.536 852.904 368.475C854.041 366.41 854.61 363.956 854.61 361.115C854.61 358.269 854.041 355.815 852.904 353.755C851.766 351.69 850.284 350.101 848.455 348.99C846.631 347.875 844.676 347.317 842.594 347.317C840.506 347.317 838.55 347.875 836.725 348.99C834.901 350.101 833.418 351.69 832.276 353.755C831.139 355.815 830.57 358.269 830.57 361.115C830.57 363.911 831.139 366.354 832.276 368.441C833.418 370.525 834.901 372.124 836.725 373.239C838.55 374.354 840.506 374.911 842.594 374.911ZM869.334 379.247V328.329H875.376V343.331L875.095 348.309H875.376C876.326 346.507 877.879 344.979 880.034 343.725C882.193 342.467 884.576 341.839 887.185 341.839C890.264 341.839 892.798 342.456 894.788 343.691C896.781 344.922 898.275 346.594 899.27 348.704C900.269 350.812 900.768 353.242 900.768 355.99V379.247H894.72V356.914C894.72 354.594 894.305 352.735 893.475 351.339C892.646 349.939 891.555 348.919 890.204 348.281C888.853 347.639 887.371 347.317 885.76 347.317C883.771 347.317 881.994 347.886 880.428 349.024C878.863 350.161 877.629 351.631 876.728 353.434C875.828 355.235 875.376 357.107 875.376 359.047V379.247H869.334ZM920.678 380.385C917.975 380.385 915.604 379.862 913.565 378.819C911.528 377.776 909.926 376.341 908.763 374.517C907.603 372.692 907.023 370.619 907.023 368.295C907.023 365.64 907.709 363.401 909.083 361.576C910.461 359.747 912.311 358.372 914.635 357.449C916.959 356.525 919.52 356.064 922.316 356.064C923.928 356.064 925.419 356.195 926.794 356.457C928.168 356.716 929.365 357.025 930.386 357.381C931.408 357.734 932.178 358.077 932.695 358.411V356.204C932.695 353.456 931.723 351.276 929.778 349.666C927.838 348.052 925.469 347.245 922.671 347.245C920.678 347.245 918.816 347.684 917.085 348.562C915.355 349.437 913.991 350.657 912.996 352.222L908.446 348.81C909.396 347.387 910.581 346.154 912 345.11C913.423 344.066 915.046 343.261 916.871 342.695C918.7 342.124 920.633 341.839 922.671 341.839C927.6 341.839 931.464 343.144 934.26 345.752C937.058 348.357 938.456 351.866 938.456 356.277V379.247H932.695V374.055H932.414C931.798 375.099 930.921 376.107 929.784 377.079C928.646 378.051 927.306 378.845 925.763 379.461C924.224 380.077 922.529 380.385 920.678 380.385ZM921.246 375.052C923.334 375.052 925.243 374.53 926.974 373.486C928.704 372.442 930.09 371.045 931.13 369.291C932.174 367.537 932.695 365.617 932.695 363.53C931.606 362.772 930.244 362.156 928.606 361.684C926.974 361.206 925.185 360.969 923.24 360.969C919.779 360.969 917.241 361.68 915.626 363.102C914.016 364.525 913.211 366.28 913.211 368.367C913.211 370.357 913.969 371.97 915.486 373.205C917.003 374.436 918.923 375.052 921.246 375.052ZM946.853 379.247V342.976H952.613V348.81H952.894C953.368 347.436 954.161 346.24 955.276 345.224C956.391 344.202 957.671 343.395 959.118 342.801C960.563 342.209 961.996 341.912 963.419 341.912C964.511 341.912 965.366 341.972 965.981 342.092C966.598 342.209 967.166 342.385 967.688 342.621V349.165C966.929 348.786 966.111 348.502 965.233 348.315C964.358 348.124 963.47 348.027 962.569 348.027C960.813 348.027 959.198 348.525 957.726 349.52C956.258 350.515 955.085 351.841 954.206 353.501C953.331 355.16 952.894 356.986 952.894 358.98V379.247H946.853Z" fill="#1E1E1E"/>
<path d="M195.48 46.51H259.61C279.397 46.51 296.622 50.485 311.285 58.435C325.949 66.385 337.255 77.515 345.205 91.825C353.155 106.135 357.13 122.654 357.13 141.38C357.13 160.106 353.155 176.625 345.205 190.935C337.255 205.245 325.949 216.375 311.285 224.325C296.622 232.275 279.397 236.25 259.61 236.25H195.48V46.51ZM258.02 202.33C278.514 202.33 294.149 196.941 304.925 186.165C315.702 175.211 321.09 160.284 321.09 141.38C321.09 122.476 315.702 107.636 304.925 96.86C294.149 85.9066 278.514 80.43 258.02 80.43H231.255V202.33H258.02ZM445.808 240.49C432.382 240.49 420.279 237.399 409.503 231.215C398.727 225.031 390.247 216.551 384.063 205.775C378.057 194.821 375.053 182.544 375.053 168.94C375.053 156.044 378.057 144.119 384.063 133.165C390.069 122.035 398.373 113.201 408.973 106.665C419.573 100.128 431.409 96.86 444.483 96.86C458.439 96.86 470.453 99.8634 480.523 105.87C490.593 111.876 498.189 120.091 503.313 130.515C508.613 140.939 511.263 152.51 511.263 165.23C511.263 169.294 510.998 173.18 510.468 176.89H408.973C410.739 187.666 414.979 195.881 421.693 201.535C428.583 207.011 436.798 209.75 446.338 209.75C454.288 209.75 461.089 208.071 466.743 204.715C472.573 201.181 477.167 196.5 480.523 190.67L508.613 204.45C494.833 228.476 473.898 240.49 445.808 240.49ZM477.873 152.245C477.519 148.005 475.929 143.854 473.103 139.79C470.453 135.55 466.654 132.105 461.708 129.455C456.938 126.629 451.284 125.215 444.748 125.215C436.444 125.215 429.289 127.689 423.283 132.635C417.453 137.405 413.213 143.941 410.563 152.245H477.873ZM520.313 101.1H559.798L593.983 189.08H596.103L630.818 101.1H669.773L612.003 236.25H577.553L520.313 101.1ZM693.39 46.51H813.7V80.43H729.165V126.54H805.22V160.46H729.165V236.25H693.39V46.51ZM895.843 240.49C882.416 240.49 870.314 237.399 859.538 231.215C848.76 225.031 840.28 216.551 834.098 205.775C828.09 194.821 825.088 182.544 825.088 168.94C825.088 156.044 828.09 144.119 834.098 133.165C840.104 122.035 848.408 113.201 859.008 106.665C869.608 100.128 881.444 96.86 894.518 96.86C908.474 96.86 920.488 99.8634 930.558 105.87C940.628 111.876 948.224 120.091 953.348 130.515C958.648 140.939 961.298 152.51 961.298 165.23C961.298 169.294 961.033 173.18 960.503 176.89H859.008C860.774 187.666 865.014 195.881 871.728 201.535C878.618 207.011 886.833 209.75 896.373 209.75C904.323 209.75 911.124 208.071 916.778 204.715C922.608 201.181 927.2 196.5 930.558 190.67L958.648 204.45C944.868 228.476 923.933 240.49 895.843 240.49ZM927.908 152.245C927.554 148.005 925.964 143.854 923.138 139.79C920.488 135.55 916.689 132.105 911.743 129.455C906.973 126.629 901.319 125.215 894.783 125.215C886.479 125.215 879.324 127.689 873.318 132.635C867.488 137.405 863.248 143.941 860.598 152.245H927.908ZM1040.74 240.49C1024.31 240.49 1010.98 237.134 1000.73 230.42C990.658 223.706 983.592 214.961 979.528 204.185L1010.53 190.67C1013.36 197.03 1017.34 201.889 1022.46 205.245C1027.76 208.425 1033.85 210.015 1040.74 210.015C1047.1 210.015 1052.4 209.044 1056.64 207.1C1060.88 204.98 1063 201.624 1063 197.03C1063 192.614 1061.06 189.345 1057.17 187.225C1053.29 184.929 1047.46 182.896 1039.68 181.13L1023.78 177.685C1012.83 175.035 1003.73 170.265 996.488 163.375C989.246 156.309 985.623 147.564 985.623 137.14C985.623 129.366 987.92 122.389 992.513 116.205C997.283 110.021 1003.64 105.251 1011.59 101.895C1019.72 98.5384 1028.64 96.86 1038.36 96.86C1066.27 96.86 1084.91 106.665 1094.27 126.275L1064.59 139.26C1059.29 129.72 1050.81 124.95 1039.15 124.95C1033.15 124.95 1028.38 126.099 1024.84 128.395C1021.31 130.515 1019.54 133.254 1019.54 136.61C1019.54 142.97 1025.55 147.74 1037.56 150.92L1057.44 155.69C1070.87 159.046 1080.94 164.17 1087.65 171.06C1094.54 177.95 1097.98 186.43 1097.98 196.5C1097.98 205.156 1095.42 212.841 1090.3 219.555C1085.35 226.091 1078.46 231.215 1069.63 234.925C1060.97 238.635 1051.34 240.49 1040.74 240.49ZM1180.66 238.37C1173.95 238.37 1167.77 237.399 1162.11 235.455C1156.46 233.335 1151.87 230.509 1148.33 226.975C1140.03 219.025 1135.88 207.719 1135.88 193.055V130.78H1112.29V101.1H1135.88V62.94H1170.59V101.1H1203.72V130.78H1170.59V186.695C1170.59 193.585 1172.1 198.531 1175.1 201.535C1177.57 204.361 1181.81 205.775 1187.82 205.775C1191.18 205.775 1193.91 205.334 1196.03 204.45C1198.33 203.566 1201.25 202.065 1204.78 199.945V233.865C1197.18 236.869 1189.14 238.37 1180.66 238.37Z" fill="#1E1E1E"/>
<path d="M8.9776 273.585H29.2294C36.4446 273.585 42.3048 279.49 42.3048 286.789V359.929C42.3048 396.388 71.566 425.938 107.668 425.938H153.309C156.2 425.938 158.536 423.579 158.536 420.659V346.594C158.536 343.674 156.2 341.315 153.309 341.315H119.814C112.599 341.315 106.739 335.41 106.739 328.11V127.828C106.739 120.541 112.586 114.623 119.814 114.623H153.309C156.2 114.623 158.536 112.264 158.536 109.344V35.2791C158.536 32.3594 156.2 30 153.309 30H107.668C71.566 30 42.3048 59.5502 42.3048 96.0091V172.446C42.3048 179.733 36.4576 185.651 29.2294 185.651H8.9776C6.08633 185.651 3.75 188.01 3.75 190.93V268.293C3.75 271.213 6.08633 273.571 8.9776 273.571V273.585Z" fill="#EA4335" stroke="#1E1E1E" stroke-width="5" stroke-linejoin="round"/>
<path d="M1380.81 182.353H1360.56C1353.34 182.353 1347.49 176.448 1347.49 169.149V96.0091C1347.49 59.5502 1318.22 30 1282.11 30H1236.48C1233.59 30 1231.25 32.3594 1231.25 35.2791V109.344C1231.25 112.264 1233.59 114.623 1236.48 114.623H1269.97C1277.19 114.623 1283.05 120.528 1283.05 127.828V328.11C1283.05 335.396 1277.2 341.315 1269.97 341.315H1236.48C1233.59 341.315 1231.25 343.674 1231.25 346.594V420.659C1231.25 423.579 1233.59 425.938 1236.48 425.938H1282.11C1318.22 425.938 1347.49 396.388 1347.49 359.929V283.491C1347.49 276.205 1353.32 270.286 1360.56 270.286H1380.81C1383.7 270.286 1386.04 267.928 1386.04 265.008V187.645C1386.04 184.725 1383.7 182.366 1380.81 182.366V182.353Z" fill="#EA4335" stroke="#1E1E1E" stroke-width="5" stroke-linejoin="round"/>
</svg>
